# xmcd
#
# Track frame offsets: 
#        150
#        35845
#        66297
#        96937
#        119285
#        145103
#        178366
#        219781
#        251462
#
# Disc length: 3799 seconds
#
# Revision: 1
# Processed by: cddbd v1.5.2PL0 Copyright (c) Steve Scherf et al.
# Submitted via: ExactAudioCopy v0.99pb4
#
DISCID=840ed509
DTITLE=Mike LeDonne - Smokin´ Out Loud
DYEAR=2003
DGENRE=Jazz
TTITLE0=One for  Don
TTITLE1=Delilah
TTITLE2=After the Love Has Gone
TTITLE3=You'll See
TTITLE4=Superstar
TTITLE5=Silverdust
TTITLE6=French Spice
TTITLE7=They Long to Be Close to You
TTITLE8=Pisces Soul
EXTD=YEAR: 2003
EXTT0=
EXTT1=
EXTT2=
EXTT3=
EXTT4=
EXTT5=
EXTT6=
EXTT7=
EXTT8=
PLAYORDER=
